<svg width="48" height="48" viewBox="0 0 48 48" fill="none" xmlns="http://www.w3.org/2000/svg">
<path fill-rule="evenodd" clip-rule="evenodd" d="M19 19.406L23 97.406H24L29 19.406H19Z" fill="#DADADA"/>
<path fill-rule="evenodd" clip-rule="evenodd" d="M24 48C37.2548 48 48 37.2548 48 24C48 10.7452 37.2548 0 24 0C10.7452 0 0 10.7452 0 24C0 37.2548 10.7452 48 24 48Z" fill="#2196F3"/>
<path d="M40 14C43.3137 14 46 11.3137 46 8C46 4.68629 43.3137 2 40 2C36.6863 2 34 4.68629 34 8C34 11.3137 36.6863 14 40 14Z" fill="#FF6A67" stroke="white" stroke-width="2"/>
<path d="M21.25 22.24V18.5C21.25 17.12 22.37 16 23.75 16C25.13 16 26.25 17.12 26.25 18.5V22.24C27.46 21.43 28.25 20.06 28.25 18.5C28.25 16.01 26.24 14 23.75 14C21.26 14 19.25 16.01 19.25 18.5C19.25 20.06 20.04 21.43 21.25 22.24Z" fill="#DADADA"/>
<path d="M31.09 26.87L26.55 24.61C26.38 24.54 26.2 24.5 26.01 24.5H25.25V18.5C25.25 17.67 24.58 17 23.75 17C22.92 17 22.25 17.67 22.25 18.5V29.24L18.82 28.52C18.74 28.51 18.67 28.49 18.58 28.49C18.27 28.49 17.99 28.62 17.79 28.82L17 29.62L21.94 34.56C22.21 34.83 22.59 35 23 35H29.79C30.54 35 31.12 34.45 31.23 33.72L31.98 28.45C31.99 28.38 32 28.31 32 28.25C32 27.63 31.62 27.09 31.09 26.87Z" fill="#DADADA"/>
</svg>
